<mxfile host="app.diagrams.net" modified="2024-02-27T05:46:12.219Z" agent="Mozilla/5.0 (Macintosh; Intel Mac OS X 10_15_7) AppleWebKit/537.36 (KHTML, like Gecko) Chrome/122.0.0.0 Safari/537.36" version="23.1.7" etag="kp241rPjtUMBM5F3K6n8" type="github">
  <diagram name="第 1 页" id="jidbmNzYyrlE58U09DDR">
    <mxGraphModel>
      <root>
        <mxCell id="0" />
        <mxCell id="1" parent="0" />
      </root>
    </mxGraphModel>
  </diagram>
</mxfile>
